<svg id="svg" version="1.1" width="515" height="515" xmlns="http://www.w3.org/2000/svg" style="display: block;">
    <g id="svgg">
        <path id="path0"
              d="M189.000 16.000 L 189.000 30.000 259.000 30.000 L 329.000 30.000 329.000 16.000 L 329.000 2.000 259.000 2.000 L 189.000 2.000 189.000 16.000 M139.000 47.000 L 139.000 61.000 259.000 61.000 L 379.000 61.000 379.000 47.000 L 379.000 33.000 259.000 33.000 L 139.000 33.000 139.000 47.000 M120.000 279.500 L 120.000 495.000 95.000 495.000 L 70.000 495.000 70.000 505.000 L 70.000 515.000 256.000 515.000 L 442.000 515.000 442.000 505.000 L 442.000 495.000 423.000 495.000 L 404.000 495.000 404.000 279.500 L 404.000 64.000 262.000 64.000 L 120.000 64.000 120.000 279.500 M183.000 122.000 L 183.000 139.000 165.500 139.000 L 148.000 139.000 148.000 122.000 L 148.000 105.000 165.500 105.000 L 183.000 105.000 183.000 122.000 M245.000 122.000 L 245.000 139.000 228.000 139.000 L 211.000 139.000 211.000 122.000 L 211.000 105.000 228.000 105.000 L 245.000 105.000 245.000 122.000 M314.000 122.000 L 314.000 139.000 296.500 139.000 L 279.000 139.000 279.000 122.000 L 279.000 105.000 296.500 105.000 L 314.000 105.000 314.000 122.000 M376.000 122.000 L 376.000 139.000 359.000 139.000 L 342.000 139.000 342.000 122.000 L 342.000 105.000 359.000 105.000 L 376.000 105.000 376.000 122.000 M183.000 190.500 L 183.000 208.000 165.500 208.000 L 148.000 208.000 148.000 190.500 L 148.000 173.000 165.500 173.000 L 183.000 173.000 183.000 190.500 M245.000 190.500 L 245.000 208.000 228.000 208.000 L 211.000 208.000 211.000 190.500 L 211.000 173.000 228.000 173.000 L 245.000 173.000 245.000 190.500 M314.000 190.500 L 314.000 208.000 296.500 208.000 L 279.000 208.000 279.000 190.500 L 279.000 173.000 296.500 173.000 L 314.000 173.000 314.000 190.500 M376.000 190.500 L 376.000 208.000 359.000 208.000 L 342.000 208.000 342.000 190.500 L 342.000 173.000 359.000 173.000 L 376.000 173.000 376.000 190.500 M183.000 259.000 L 183.000 276.000 165.500 276.000 L 148.000 276.000 148.000 259.000 L 148.000 242.000 165.500 242.000 L 183.000 242.000 183.000 259.000 M245.000 259.000 L 245.000 276.000 228.000 276.000 L 211.000 276.000 211.000 259.000 L 211.000 242.000 228.000 242.000 L 245.000 242.000 245.000 259.000 M314.000 259.000 L 314.000 276.000 296.500 276.000 L 279.000 276.000 279.000 259.000 L 279.000 242.000 296.500 242.000 L 314.000 242.000 314.000 259.000 M376.000 259.000 L 376.000 276.000 359.000 276.000 L 342.000 276.000 342.000 259.000 L 342.000 242.000 359.000 242.000 L 376.000 242.000 376.000 259.000 M183.000 321.500 L 183.000 339.000 165.500 339.000 L 148.000 339.000 148.000 321.500 L 148.000 304.000 165.500 304.000 L 183.000 304.000 183.000 321.500 M245.000 321.500 L 245.000 339.000 228.000 339.000 L 211.000 339.000 211.000 321.500 L 211.000 304.000 228.000 304.000 L 245.000 304.000 245.000 321.500 M314.000 321.500 L 314.000 339.000 296.500 339.000 L 279.000 339.000 279.000 321.500 L 279.000 304.000 296.500 304.000 L 314.000 304.000 314.000 321.500 M376.000 321.500 L 376.000 339.000 359.000 339.000 L 342.000 339.000 342.000 321.500 L 342.000 304.000 359.000 304.000 L 376.000 304.000 376.000 321.500 M183.000 390.000 L 183.000 407.000 165.500 407.000 L 148.000 407.000 148.000 390.000 L 148.000 373.000 165.500 373.000 L 183.000 373.000 183.000 390.000 M245.000 390.000 L 245.000 407.000 228.000 407.000 L 211.000 407.000 211.000 390.000 L 211.000 373.000 228.000 373.000 L 245.000 373.000 245.000 390.000 M314.000 390.000 L 314.000 407.000 296.500 407.000 L 279.000 407.000 279.000 390.000 L 279.000 373.000 296.500 373.000 L 314.000 373.000 314.000 390.000 M376.000 390.000 L 376.000 407.000 359.000 407.000 L 342.000 407.000 342.000 390.000 L 342.000 373.000 359.000 373.000 L 376.000 373.000 376.000 390.000 M301.000 471.500 L 301.000 495.000 256.000 495.000 L 211.000 495.000 211.000 471.500 L 211.000 448.000 256.000 448.000 L 301.000 448.000 301.000 471.500 "
              stroke="none" fill="#dddddd" fill-rule="evenodd"/>
    </g>
</svg>